# xmcd
#
# Track frame offsets: 
#        150
#        17680
#        39835
#        51180
#        66205
#        85705
#        102612
#        120631
#        133061
#        147981
#
# Disc length: 2324 seconds
#
# Revision: 4
# Processed by: cddbd v1.5.2PL0 Copyright (c) Steve Scherf et al.
# Submitted via: ExactAudioCopyFreeDBPlugin 1.0
#
DISCID=8709120a
DTITLE=OFF COURSE - FAIRWAY
DYEAR=1978
DGENRE=JPop
TTITLE0=あなたのすべて
TTITLE1=美しい思い出に
TTITLE2=いつもふたり
TTITLE3=夢
TTITLE4=この空にはばたく前に
TTITLE5=夏の終り
TTITLE6=季節は流れて
TTITLE7=失恋のすすめ
TTITLE8=去っていった友へ-T氏に捧げる-
TTITLE9=心さみしい人よ
EXTD=
EXTT0=
EXTT1=
EXTT2=
EXTT3=
EXTT4=
EXTT5=
EXTT6=
EXTT7=
EXTT8=
EXTT9=
PLAYORDER=
